# xmcd
#
# Track frame offsets:
#	150
#	12077
#	24700
#	41050
#	58512
#	74420
#	86517
#	99565
#	115535
#	136792
#	153687
#	168805
#	183184
#	200892
#	213962
#	227765
#	241540
#	255222
#	266947
#	278755
#
# Disc length: 3941 seconds
#
# Revision: 0
# Processed by: cddbd v1.5.2PL0 Copyright (c) Steve Scherf et al.
# Submitted via: EasyCDDAExtractor 11.1.0.1
#
DISCID=0a0f6314
DTITLE=Various Artist - Nashville music express  13
DYEAR=1900
DGENRE=country
TTITLE0=Tommy Cash - A tribute to a princess
TTITLE1=Jeff Savage - Amarillo by morning
TTITLE2=Bellamy brothers - Catahoula
TTITLE3=A.W.Peterson - Cowboys are marchin'
TTITLE4=Digger - Cruel baby
TTITLE5=Jimmy Smart - Dizzy feelings
TTITLE6=Linda Branson - Heart for christmas
TTITLE7=Tiras Glasgow - In his eyes
TTITLE8=A.W.Peterson - Littlee cowboys
TTITLE9=Bellamy brothers - Over the line
TTITLE10=John Smith - Part time dad
TTITLE11=Elvis Wade - Please come home for christmas
TTITLE12=Elvis Wade - Proffesional love maker
TTITLE13=Hoyat Axton - Spinn of the wheel
TTITLE14=Billi Joe Burnette - Still loving you
TTITLE15=Sandy Posey and Elvis Wade - Storybook children
TTITLE16=Jerry Adams - Straight at the heart
TTITLE17=Billy E Penn - Tied to the tracks
TTITLE18=Shane Merriman - Tripped over your memory
TTITLE19=Vicky Lynn - Wings of a dove
EXTD=
EXTT0=
EXTT1=
EXTT2=
EXTT3=
EXTT4=
EXTT5=
EXTT6=
EXTT7=
EXTT8=
EXTT9=
EXTT10=
EXTT11=
EXTT12=
EXTT13=
EXTT14=
EXTT15=
EXTT16=
EXTT17=
EXTT18=
EXTT19=
PLAYORDER=
